<mxfile host="app.diagrams.net" agent="Mozilla/5.0 (Windows NT 10.0; Win64; x64) AppleWebKit/537.36 (KHTML, like Gecko) Chrome/131.0.0.0 Safari/537.36" version="25.0.3">
  <diagram name="Page-1" id="syf8CGJI8Fy8KUV9CtZf">
    <mxGraphModel dx="1064" dy="1707" grid="1" gridSize="10" guides="1" tooltips="1" connect="1" arrows="1" fold="1" page="1" pageScale="1" pageWidth="827" pageHeight="1169" background="#FFFFFF" math="0" shadow="0">
      <root>
        <mxCell id="0" />
        <mxCell id="1" parent="0" />
        <mxCell id="7QPMSQ-8bjf0m_F3JloD-5" value="" style="edgeStyle=orthogonalEdgeStyle;rounded=0;orthogonalLoop=1;jettySize=auto;html=1;" parent="1" source="7QPMSQ-8bjf0m_F3JloD-2" target="7QPMSQ-8bjf0m_F3JloD-3" edge="1">
          <mxGeometry relative="1" as="geometry" />
        </mxCell>
        <mxCell id="7QPMSQ-8bjf0m_F3JloD-2" value="&lt;div style=&quot;color: #383a42;background-color: #f5f5f5;font-family: Consolas, &#39;Courier New&#39;, monospace;font-weight: normal;font-size: 14px;line-height: 19px;white-space: pre;&quot;&gt;&lt;div&gt;&lt;span style=&quot;color: #aca600;&quot;&gt;DRM_IOCTL_PRIME_HANDLE_TO_FD&lt;/span&gt;&lt;/div&gt;&lt;/div&gt;" style="text;whiteSpace=wrap;html=1;" parent="1" vertex="1">
          <mxGeometry y="55" width="230" height="30" as="geometry" />
        </mxCell>
        <mxCell id="7QPMSQ-8bjf0m_F3JloD-10" style="edgeStyle=orthogonalEdgeStyle;rounded=0;orthogonalLoop=1;jettySize=auto;html=1;exitX=1;exitY=0.5;exitDx=0;exitDy=0;entryX=0;entryY=0.5;entryDx=0;entryDy=0;" parent="1" source="7QPMSQ-8bjf0m_F3JloD-3" target="7QPMSQ-8bjf0m_F3JloD-8" edge="1">
          <mxGeometry relative="1" as="geometry" />
        </mxCell>
        <mxCell id="vuLgAwZv7nSGGhIB2zGk-6" style="edgeStyle=orthogonalEdgeStyle;rounded=0;orthogonalLoop=1;jettySize=auto;html=1;exitX=1;exitY=0.5;exitDx=0;exitDy=0;entryX=0;entryY=0.5;entryDx=0;entryDy=0;" parent="1" source="7QPMSQ-8bjf0m_F3JloD-3" target="vuLgAwZv7nSGGhIB2zGk-5" edge="1">
          <mxGeometry relative="1" as="geometry" />
        </mxCell>
        <mxCell id="vuLgAwZv7nSGGhIB2zGk-9" style="edgeStyle=orthogonalEdgeStyle;rounded=0;orthogonalLoop=1;jettySize=auto;html=1;exitX=1;exitY=0.5;exitDx=0;exitDy=0;entryX=0;entryY=0.5;entryDx=0;entryDy=0;" parent="1" source="7QPMSQ-8bjf0m_F3JloD-3" target="vuLgAwZv7nSGGhIB2zGk-8" edge="1">
          <mxGeometry relative="1" as="geometry" />
        </mxCell>
        <mxCell id="7QPMSQ-8bjf0m_F3JloD-3" value="&lt;div style=&quot;color: #383a42;background-color: #f5f5f5;font-family: Consolas, &#39;Courier New&#39;, monospace;font-weight: normal;font-size: 14px;line-height: 19px;white-space: pre;&quot;&gt;&lt;div&gt;&lt;span style=&quot;color: #4078f2;&quot;&gt;drm_gem_prime_handle_to_fd&lt;/span&gt;&lt;/div&gt;&lt;/div&gt;" style="text;whiteSpace=wrap;html=1;" parent="1" vertex="1">
          <mxGeometry x="255" y="55" width="210" height="30" as="geometry" />
        </mxCell>
        <mxCell id="7QPMSQ-8bjf0m_F3JloD-6" value="&lt;font color=&quot;#999999&quot; style=&quot;font-size: 11px;&quot;&gt;传入GEM handle, export dma buf fd&lt;/font&gt;" style="text;html=1;align=center;verticalAlign=middle;resizable=0;points=[];autosize=1;strokeColor=none;fillColor=none;" parent="1" vertex="1">
          <mxGeometry x="5" y="25" width="200" height="30" as="geometry" />
        </mxCell>
        <mxCell id="7QPMSQ-8bjf0m_F3JloD-13" value="" style="edgeStyle=orthogonalEdgeStyle;rounded=0;orthogonalLoop=1;jettySize=auto;html=1;" parent="1" source="7QPMSQ-8bjf0m_F3JloD-8" target="7QPMSQ-8bjf0m_F3JloD-12" edge="1">
          <mxGeometry relative="1" as="geometry" />
        </mxCell>
        <mxCell id="7QPMSQ-8bjf0m_F3JloD-15" style="edgeStyle=orthogonalEdgeStyle;rounded=0;orthogonalLoop=1;jettySize=auto;html=1;exitX=1;exitY=0.5;exitDx=0;exitDy=0;entryX=0;entryY=0.5;entryDx=0;entryDy=0;" parent="1" source="7QPMSQ-8bjf0m_F3JloD-8" target="7QPMSQ-8bjf0m_F3JloD-14" edge="1">
          <mxGeometry relative="1" as="geometry" />
        </mxCell>
        <mxCell id="7QPMSQ-8bjf0m_F3JloD-8" value="&lt;div style=&quot;color: #383a42;background-color: #f5f5f5;font-family: Consolas, &#39;Courier New&#39;, monospace;font-weight: normal;font-size: 14px;line-height: 19px;white-space: pre;&quot;&gt;&lt;div&gt;&lt;span style=&quot;color: #4078f2;&quot;&gt;export_and_register_object&lt;/span&gt;&lt;/div&gt;&lt;/div&gt;" style="text;whiteSpace=wrap;html=1;" parent="1" vertex="1">
          <mxGeometry x="510" y="18.75" width="210" height="30" as="geometry" />
        </mxCell>
        <mxCell id="7QPMSQ-8bjf0m_F3JloD-17" value="" style="edgeStyle=orthogonalEdgeStyle;rounded=0;orthogonalLoop=1;jettySize=auto;html=1;" parent="1" source="7QPMSQ-8bjf0m_F3JloD-12" target="7QPMSQ-8bjf0m_F3JloD-16" edge="1">
          <mxGeometry relative="1" as="geometry" />
        </mxCell>
        <mxCell id="7QPMSQ-8bjf0m_F3JloD-12" value="&lt;div style=&quot;color: #383a42;background-color: #f5f5f5;font-family: Consolas, &#39;Courier New&#39;, monospace;font-weight: normal;font-size: 14px;line-height: 19px;white-space: pre;&quot;&gt;&lt;div&gt;&lt;div style=&quot;line-height: 19px;&quot;&gt;&lt;span style=&quot;color: #00afaf;&quot;&gt;obj&lt;/span&gt;-&amp;gt;&lt;span style=&quot;color: #e45649;&quot;&gt;funcs&lt;/span&gt;-&amp;gt;&lt;span style=&quot;color: #e45649;&quot;&gt;export&lt;/span&gt;&lt;/div&gt;&lt;/div&gt;&lt;div&gt;&lt;span style=&quot;color: #4078f2;&quot;&gt;(drm_gem_prime_export)&lt;/span&gt;&lt;/div&gt;&lt;/div&gt;" style="text;whiteSpace=wrap;html=1;" parent="1" vertex="1">
          <mxGeometry x="755" y="-21.25" width="160" height="52.5" as="geometry" />
        </mxCell>
        <mxCell id="7QPMSQ-8bjf0m_F3JloD-14" value="&lt;div style=&quot;background-color: rgb(245, 245, 245); font-family: Consolas, &amp;quot;Courier New&amp;quot;, monospace; font-weight: normal; font-size: 14px; line-height: 19px; white-space: pre;&quot;&gt;&lt;div style=&quot;&quot;&gt;&lt;font color=&quot;#ff0000&quot;&gt;get_dma_buf&lt;/font&gt;&lt;/div&gt;&lt;/div&gt;" style="text;whiteSpace=wrap;html=1;" parent="1" vertex="1">
          <mxGeometry x="755" y="53.75" width="90" height="30" as="geometry" />
        </mxCell>
        <mxCell id="7QPMSQ-8bjf0m_F3JloD-19" value="" style="edgeStyle=orthogonalEdgeStyle;rounded=0;orthogonalLoop=1;jettySize=auto;html=1;" parent="1" source="7QPMSQ-8bjf0m_F3JloD-16" target="7QPMSQ-8bjf0m_F3JloD-18" edge="1">
          <mxGeometry relative="1" as="geometry" />
        </mxCell>
        <mxCell id="7QPMSQ-8bjf0m_F3JloD-16" value="&lt;div style=&quot;color: #383a42;background-color: #f5f5f5;font-family: Consolas, &#39;Courier New&#39;, monospace;font-weight: normal;font-size: 14px;line-height: 19px;white-space: pre;&quot;&gt;&lt;div&gt;&lt;span style=&quot;color: #4078f2;&quot;&gt;drm_gem_dmabuf_export&lt;/span&gt;&lt;/div&gt;&lt;/div&gt;" style="text;whiteSpace=wrap;html=1;" parent="1" vertex="1">
          <mxGeometry x="960" y="-12.5" width="170" height="35" as="geometry" />
        </mxCell>
        <mxCell id="7QPMSQ-8bjf0m_F3JloD-18" value="&lt;div style=&quot;background-color: rgb(245, 245, 245); font-family: Consolas, &amp;quot;Courier New&amp;quot;, monospace; font-weight: normal; font-size: 14px; line-height: 19px; white-space: pre;&quot;&gt;&lt;div style=&quot;&quot;&gt;&lt;font color=&quot;#ff0000&quot;&gt;dma_buf_export&lt;/font&gt;&lt;/div&gt;&lt;/div&gt;" style="text;whiteSpace=wrap;html=1;" parent="1" vertex="1">
          <mxGeometry x="1160" y="-10" width="120" height="30" as="geometry" />
        </mxCell>
        <mxCell id="7QPMSQ-8bjf0m_F3JloD-24" value="" style="edgeStyle=orthogonalEdgeStyle;rounded=0;orthogonalLoop=1;jettySize=auto;html=1;" parent="1" source="7QPMSQ-8bjf0m_F3JloD-20" target="7QPMSQ-8bjf0m_F3JloD-23" edge="1">
          <mxGeometry relative="1" as="geometry" />
        </mxCell>
        <mxCell id="vuLgAwZv7nSGGhIB2zGk-18" value="" style="edgeStyle=orthogonalEdgeStyle;rounded=0;orthogonalLoop=1;jettySize=auto;html=1;" parent="1" source="7QPMSQ-8bjf0m_F3JloD-20" target="vuLgAwZv7nSGGhIB2zGk-17" edge="1">
          <mxGeometry relative="1" as="geometry" />
        </mxCell>
        <mxCell id="7QPMSQ-8bjf0m_F3JloD-20" value="&lt;div style=&quot;color: #383a42;background-color: #f5f5f5;font-family: Consolas, &#39;Courier New&#39;, monospace;font-weight: normal;font-size: 14px;line-height: 19px;white-space: pre;&quot;&gt;&lt;div&gt;&lt;span style=&quot;color: #aca600;&quot;&gt;DRM_IOCTL_PRIME_FD_TO_HANDLE&lt;/span&gt;&lt;/div&gt;&lt;/div&gt;" style="text;whiteSpace=wrap;html=1;" parent="1" vertex="1">
          <mxGeometry x="10" y="308.75" width="220" height="30" as="geometry" />
        </mxCell>
        <mxCell id="7QPMSQ-8bjf0m_F3JloD-21" value="传入 dma buf fd, 返回GEM object handle" style="text;html=1;align=center;verticalAlign=middle;resizable=0;points=[];autosize=1;strokeColor=none;fillColor=none;fontSize=11;fontColor=#999999;" parent="1" vertex="1">
          <mxGeometry x="5" y="281.25" width="220" height="30" as="geometry" />
        </mxCell>
        <mxCell id="7QPMSQ-8bjf0m_F3JloD-27" value="" style="edgeStyle=orthogonalEdgeStyle;rounded=0;orthogonalLoop=1;jettySize=auto;html=1;" parent="1" source="7QPMSQ-8bjf0m_F3JloD-22" target="7QPMSQ-8bjf0m_F3JloD-25" edge="1">
          <mxGeometry relative="1" as="geometry" />
        </mxCell>
        <mxCell id="7QPMSQ-8bjf0m_F3JloD-22" value="&lt;div style=&quot;color: #383a42;background-color: #f5f5f5;font-family: Consolas, &#39;Courier New&#39;, monospace;font-weight: normal;font-size: 14px;line-height: 19px;white-space: pre;&quot;&gt;&lt;div&gt;&lt;div style=&quot;line-height: 19px;&quot;&gt;&lt;span style=&quot;color: #00afaf;&quot;&gt;dev&lt;/span&gt;-&amp;gt;&lt;span style=&quot;color: #e45649;&quot;&gt;driver&lt;/span&gt;-&amp;gt;&lt;span style=&quot;color: #e45649;&quot;&gt;gem_prime_import&lt;/span&gt;&lt;/div&gt;&lt;/div&gt;&lt;div&gt;&lt;span style=&quot;color: #4078f2;&quot;&gt;(drm_gem_prime_import)&lt;/span&gt;&lt;/div&gt;&lt;/div&gt;" style="text;whiteSpace=wrap;html=1;align=center;" parent="1" vertex="1">
          <mxGeometry x="510" y="297.5" width="220" height="52.5" as="geometry" />
        </mxCell>
        <mxCell id="7QPMSQ-8bjf0m_F3JloD-26" value="" style="edgeStyle=orthogonalEdgeStyle;rounded=0;orthogonalLoop=1;jettySize=auto;html=1;" parent="1" source="7QPMSQ-8bjf0m_F3JloD-23" target="7QPMSQ-8bjf0m_F3JloD-22" edge="1">
          <mxGeometry relative="1" as="geometry" />
        </mxCell>
        <mxCell id="7QPMSQ-8bjf0m_F3JloD-23" value="&lt;div style=&quot;color: #383a42;background-color: #f5f5f5;font-family: Consolas, &#39;Courier New&#39;, monospace;font-weight: normal;font-size: 14px;line-height: 19px;white-space: pre;&quot;&gt;&lt;div&gt;&lt;span style=&quot;color: #4078f2;&quot;&gt;drm_gem_prime_fd_to_handle&lt;/span&gt;&lt;/div&gt;&lt;/div&gt;" style="text;whiteSpace=wrap;html=1;" parent="1" vertex="1">
          <mxGeometry x="260" y="308.75" width="210" height="30" as="geometry" />
        </mxCell>
        <mxCell id="7QPMSQ-8bjf0m_F3JloD-29" style="edgeStyle=orthogonalEdgeStyle;rounded=0;orthogonalLoop=1;jettySize=auto;html=1;exitX=1;exitY=0.5;exitDx=0;exitDy=0;entryX=0;entryY=0.5;entryDx=0;entryDy=0;" parent="1" source="7QPMSQ-8bjf0m_F3JloD-25" target="7QPMSQ-8bjf0m_F3JloD-28" edge="1">
          <mxGeometry relative="1" as="geometry" />
        </mxCell>
        <mxCell id="7QPMSQ-8bjf0m_F3JloD-41" style="edgeStyle=orthogonalEdgeStyle;rounded=0;orthogonalLoop=1;jettySize=auto;html=1;exitX=1;exitY=0.5;exitDx=0;exitDy=0;entryX=0;entryY=0.5;entryDx=0;entryDy=0;" parent="1" source="7QPMSQ-8bjf0m_F3JloD-25" target="7QPMSQ-8bjf0m_F3JloD-39" edge="1">
          <mxGeometry relative="1" as="geometry" />
        </mxCell>
        <mxCell id="7QPMSQ-8bjf0m_F3JloD-43" style="edgeStyle=orthogonalEdgeStyle;rounded=0;orthogonalLoop=1;jettySize=auto;html=1;exitX=1;exitY=0.5;exitDx=0;exitDy=0;entryX=0;entryY=0.5;entryDx=0;entryDy=0;" parent="1" source="7QPMSQ-8bjf0m_F3JloD-25" target="7QPMSQ-8bjf0m_F3JloD-42" edge="1">
          <mxGeometry relative="1" as="geometry" />
        </mxCell>
        <mxCell id="7QPMSQ-8bjf0m_F3JloD-25" value="&lt;div style=&quot;color: #383a42;background-color: #f5f5f5;font-family: Consolas, &#39;Courier New&#39;, monospace;font-weight: normal;font-size: 14px;line-height: 19px;white-space: pre;&quot;&gt;&lt;div&gt;&lt;span style=&quot;color: #4078f2;&quot;&gt;drm_gem_prime_import_dev&lt;/span&gt;&lt;/div&gt;&lt;/div&gt;" style="text;whiteSpace=wrap;html=1;" parent="1" vertex="1">
          <mxGeometry x="780" y="308.75" width="190" height="30" as="geometry" />
        </mxCell>
        <mxCell id="7QPMSQ-8bjf0m_F3JloD-31" value="" style="edgeStyle=orthogonalEdgeStyle;rounded=0;orthogonalLoop=1;jettySize=auto;html=1;" parent="1" source="7QPMSQ-8bjf0m_F3JloD-28" target="7QPMSQ-8bjf0m_F3JloD-30" edge="1">
          <mxGeometry relative="1" as="geometry" />
        </mxCell>
        <mxCell id="7QPMSQ-8bjf0m_F3JloD-54" style="edgeStyle=orthogonalEdgeStyle;rounded=0;orthogonalLoop=1;jettySize=auto;html=1;exitX=1;exitY=0.5;exitDx=0;exitDy=0;entryX=0;entryY=0.5;entryDx=0;entryDy=0;" parent="1" source="7QPMSQ-8bjf0m_F3JloD-28" target="7QPMSQ-8bjf0m_F3JloD-52" edge="1">
          <mxGeometry relative="1" as="geometry" />
        </mxCell>
        <mxCell id="7QPMSQ-8bjf0m_F3JloD-28" value="&lt;div style=&quot;background-color: rgb(245, 245, 245); font-family: Consolas, &amp;quot;Courier New&amp;quot;, monospace; font-weight: normal; font-size: 14px; line-height: 19px; white-space: pre;&quot;&gt;&lt;div style=&quot;&quot;&gt;&lt;font color=&quot;#ff0000&quot;&gt;dma_buf_attach&lt;/font&gt;&lt;/div&gt;&lt;/div&gt;" style="text;whiteSpace=wrap;html=1;" parent="1" vertex="1">
          <mxGeometry x="1075" y="270" width="120" height="30" as="geometry" />
        </mxCell>
        <mxCell id="7QPMSQ-8bjf0m_F3JloD-35" value="" style="edgeStyle=orthogonalEdgeStyle;rounded=0;orthogonalLoop=1;jettySize=auto;html=1;" parent="1" source="7QPMSQ-8bjf0m_F3JloD-30" target="7QPMSQ-8bjf0m_F3JloD-34" edge="1">
          <mxGeometry relative="1" as="geometry" />
        </mxCell>
        <mxCell id="7QPMSQ-8bjf0m_F3JloD-30" value="&lt;div style=&quot;background-color: rgb(245, 245, 245); font-family: Consolas, &amp;quot;Courier New&amp;quot;, monospace; font-weight: normal; font-size: 14px; line-height: 19px; white-space: pre;&quot;&gt;&lt;div style=&quot;color: rgb(56, 58, 66);&quot;&gt;&lt;span style=&quot;color: #00afaf;&quot;&gt;dmabuf&lt;/span&gt;&lt;span style=&quot;color: #383a42;&quot;&gt;-&amp;gt;&lt;/span&gt;&lt;span style=&quot;color: #e45649;&quot;&gt;ops&lt;/span&gt;&lt;span style=&quot;color: #383a42;&quot;&gt;-&amp;gt;&lt;/span&gt;&lt;span style=&quot;color: #e45649;&quot;&gt;attach&lt;/span&gt;&lt;/div&gt;&lt;div style=&quot;&quot;&gt;&lt;span style=&quot;color: rgb(64, 120, 242);&quot;&gt;(drm_gem_map_attach)&lt;/span&gt;&lt;/div&gt;&lt;/div&gt;" style="text;whiteSpace=wrap;html=1;align=center;" parent="1" vertex="1">
          <mxGeometry x="1236" y="298.75" width="160" height="50" as="geometry" />
        </mxCell>
        <mxCell id="7QPMSQ-8bjf0m_F3JloD-32" value="&lt;div style=&quot;color: #383a42;background-color: #f5f5f5;font-family: Consolas, &#39;Courier New&#39;, monospace;font-weight: normal;font-size: 14px;line-height: 19px;white-space: pre;&quot;&gt;&lt;div&gt;&lt;span style=&quot;color: #a626a4;&quot;&gt;static&lt;/span&gt;&lt;span style=&quot;color: #383a42;&quot;&gt; &lt;/span&gt;&lt;span style=&quot;color: #a626a4;&quot;&gt;const&lt;/span&gt;&lt;span style=&quot;color: #383a42;&quot;&gt; &lt;/span&gt;&lt;span style=&quot;color: #a626a4;&quot;&gt;struct&lt;/span&gt;&lt;span style=&quot;color: #383a42;&quot;&gt; &lt;/span&gt;&lt;span style=&quot;color: #c18401;&quot;&gt;dma_buf_ops&lt;/span&gt;&lt;span style=&quot;color: #383a42;&quot;&gt; &lt;/span&gt;&lt;span style=&quot;color: #e45649;&quot;&gt;drm_gem_prime_dmabuf_ops&lt;/span&gt;&lt;span style=&quot;color: #383a42;&quot;&gt; &lt;/span&gt;&lt;span style=&quot;color: #a626a4;&quot;&gt;=&lt;/span&gt;&lt;span style=&quot;color: #383a42;&quot;&gt; &amp;nbsp;{&lt;/span&gt;&lt;/div&gt;&lt;div&gt;&lt;span style=&quot;color: #383a42;&quot;&gt;&amp;nbsp; &amp;nbsp; &amp;nbsp; &amp;nbsp; .&lt;/span&gt;&lt;span style=&quot;color: #e45649;&quot;&gt;cache_sgt_mapping&lt;/span&gt;&lt;span style=&quot;color: #383a42;&quot;&gt; &lt;/span&gt;&lt;span style=&quot;color: #a626a4;&quot;&gt;=&lt;/span&gt;&lt;span style=&quot;color: #383a42;&quot;&gt; &lt;/span&gt;&lt;span style=&quot;color: #e45649;&quot;&gt;true&lt;/span&gt;&lt;span style=&quot;color: #383a42;&quot;&gt;,&lt;/span&gt;&lt;/div&gt;&lt;div&gt;&lt;span style=&quot;color: #383a42;&quot;&gt;&amp;nbsp; &amp;nbsp; &amp;nbsp; &amp;nbsp; .&lt;/span&gt;&lt;span style=&quot;color: #e45649;&quot;&gt;attach&lt;/span&gt;&lt;span style=&quot;color: #383a42;&quot;&gt; &lt;/span&gt;&lt;span style=&quot;color: #a626a4;&quot;&gt;=&lt;/span&gt;&lt;span style=&quot;color: #383a42;&quot;&gt; &lt;/span&gt;&lt;span style=&quot;color: #4078f2;&quot;&gt;drm_gem_map_attach&lt;/span&gt;&lt;span style=&quot;color: #383a42;&quot;&gt;,&lt;/span&gt;&lt;/div&gt;&lt;div&gt;&lt;span style=&quot;color: #383a42;&quot;&gt;&amp;nbsp; &amp;nbsp; &amp;nbsp; &amp;nbsp; .&lt;/span&gt;&lt;span style=&quot;color: #e45649;&quot;&gt;detach&lt;/span&gt;&lt;span style=&quot;color: #383a42;&quot;&gt; &lt;/span&gt;&lt;span style=&quot;color: #a626a4;&quot;&gt;=&lt;/span&gt;&lt;span style=&quot;color: #383a42;&quot;&gt; &lt;/span&gt;&lt;span style=&quot;color: #4078f2;&quot;&gt;drm_gem_map_detach&lt;/span&gt;&lt;span style=&quot;color: #383a42;&quot;&gt;,&lt;/span&gt;&lt;/div&gt;&lt;div&gt;&lt;span style=&quot;color: #383a42;&quot;&gt;&amp;nbsp; &amp;nbsp; &amp;nbsp; &amp;nbsp; .&lt;/span&gt;&lt;span style=&quot;color: #e45649;&quot;&gt;map_dma_buf&lt;/span&gt;&lt;span style=&quot;color: #383a42;&quot;&gt; &lt;/span&gt;&lt;span style=&quot;color: #a626a4;&quot;&gt;=&lt;/span&gt;&lt;span style=&quot;color: #383a42;&quot;&gt; &lt;/span&gt;&lt;span style=&quot;color: #4078f2;&quot;&gt;drm_gem_map_dma_buf&lt;/span&gt;&lt;span style=&quot;color: #383a42;&quot;&gt;,&lt;/span&gt;&lt;/div&gt;&lt;div&gt;&lt;span style=&quot;color: #383a42;&quot;&gt;&amp;nbsp; &amp;nbsp; &amp;nbsp; &amp;nbsp; .&lt;/span&gt;&lt;span style=&quot;color: #e45649;&quot;&gt;unmap_dma_buf&lt;/span&gt;&lt;span style=&quot;color: #383a42;&quot;&gt; &lt;/span&gt;&lt;span style=&quot;color: #a626a4;&quot;&gt;=&lt;/span&gt;&lt;span style=&quot;color: #383a42;&quot;&gt; &lt;/span&gt;&lt;span style=&quot;color: #4078f2;&quot;&gt;drm_gem_unmap_dma_buf&lt;/span&gt;&lt;span style=&quot;color: #383a42;&quot;&gt;,&lt;/span&gt;&lt;/div&gt;&lt;div&gt;&lt;span style=&quot;color: #383a42;&quot;&gt;&amp;nbsp; &amp;nbsp; &amp;nbsp; &amp;nbsp; .&lt;/span&gt;&lt;span style=&quot;color: #e45649;&quot;&gt;release&lt;/span&gt;&lt;span style=&quot;color: #383a42;&quot;&gt; &lt;/span&gt;&lt;span style=&quot;color: #a626a4;&quot;&gt;=&lt;/span&gt;&lt;span style=&quot;color: #383a42;&quot;&gt; &lt;/span&gt;&lt;span style=&quot;color: #4078f2;&quot;&gt;drm_gem_dmabuf_release&lt;/span&gt;&lt;span style=&quot;color: #383a42;&quot;&gt;,&lt;/span&gt;&lt;/div&gt;&lt;div&gt;&lt;span style=&quot;color: #383a42;&quot;&gt;&amp;nbsp; &amp;nbsp; &amp;nbsp; &amp;nbsp; .&lt;/span&gt;&lt;span style=&quot;color: #e45649;&quot;&gt;mmap&lt;/span&gt;&lt;span style=&quot;color: #383a42;&quot;&gt; &lt;/span&gt;&lt;span style=&quot;color: #a626a4;&quot;&gt;=&lt;/span&gt;&lt;span style=&quot;color: #383a42;&quot;&gt; &lt;/span&gt;&lt;span style=&quot;color: #4078f2;&quot;&gt;drm_gem_dmabuf_mmap&lt;/span&gt;&lt;span style=&quot;color: #383a42;&quot;&gt;,&lt;/span&gt;&lt;/div&gt;&lt;div&gt;&lt;span style=&quot;color: #383a42;&quot;&gt;&amp;nbsp; &amp;nbsp; &amp;nbsp; &amp;nbsp; .&lt;/span&gt;&lt;span style=&quot;color: #e45649;&quot;&gt;vmap&lt;/span&gt;&lt;span style=&quot;color: #383a42;&quot;&gt; &lt;/span&gt;&lt;span style=&quot;color: #a626a4;&quot;&gt;=&lt;/span&gt;&lt;span style=&quot;color: #383a42;&quot;&gt; &lt;/span&gt;&lt;span style=&quot;color: #4078f2;&quot;&gt;drm_gem_dmabuf_vmap&lt;/span&gt;&lt;span style=&quot;color: #383a42;&quot;&gt;,&lt;/span&gt;&lt;/div&gt;&lt;div&gt;&lt;span style=&quot;color: #383a42;&quot;&gt;&amp;nbsp; &amp;nbsp; &amp;nbsp; &amp;nbsp; .&lt;/span&gt;&lt;span style=&quot;color: #e45649;&quot;&gt;vunmap&lt;/span&gt;&lt;span style=&quot;color: #383a42;&quot;&gt; &lt;/span&gt;&lt;span style=&quot;color: #a626a4;&quot;&gt;=&lt;/span&gt;&lt;span style=&quot;color: #383a42;&quot;&gt; &lt;/span&gt;&lt;span style=&quot;color: #4078f2;&quot;&gt;drm_gem_dmabuf_vunmap&lt;/span&gt;&lt;span style=&quot;color: #383a42;&quot;&gt;,&lt;/span&gt;&lt;/div&gt;&lt;div&gt;&lt;span style=&quot;color: #383a42;&quot;&gt;};&lt;/span&gt;&lt;/div&gt;&lt;/div&gt;" style="text;whiteSpace=wrap;html=1;" parent="1" vertex="1">
          <mxGeometry x="10" y="-251.25" width="500" height="230" as="geometry" />
        </mxCell>
        <mxCell id="7QPMSQ-8bjf0m_F3JloD-37" value="" style="edgeStyle=orthogonalEdgeStyle;rounded=0;orthogonalLoop=1;jettySize=auto;html=1;" parent="1" source="7QPMSQ-8bjf0m_F3JloD-34" target="7QPMSQ-8bjf0m_F3JloD-36" edge="1">
          <mxGeometry relative="1" as="geometry" />
        </mxCell>
        <mxCell id="7QPMSQ-8bjf0m_F3JloD-34" value="&lt;div style=&quot;color: #383a42;background-color: #f5f5f5;font-family: Consolas, &#39;Courier New&#39;, monospace;font-weight: normal;font-size: 14px;line-height: 19px;white-space: pre;&quot;&gt;&lt;div&gt;&lt;span style=&quot;color: #4078f2;&quot;&gt;drm_gem_pin&lt;/span&gt;&lt;/div&gt;&lt;/div&gt;" style="text;whiteSpace=wrap;html=1;" parent="1" vertex="1">
          <mxGeometry x="1435" y="308.75" width="90" height="30" as="geometry" />
        </mxCell>
        <mxCell id="7QPMSQ-8bjf0m_F3JloD-36" value="&lt;div style=&quot;color: #383a42;background-color: #f5f5f5;font-family: Consolas, &#39;Courier New&#39;, monospace;font-weight: normal;font-size: 14px;line-height: 19px;white-space: pre;&quot;&gt;&lt;div&gt;&lt;span style=&quot;color: #00afaf;&quot;&gt;obj&lt;/span&gt;&lt;span style=&quot;color: #383a42;&quot;&gt;-&amp;gt;&lt;/span&gt;&lt;span style=&quot;color: #e45649;&quot;&gt;funcs&lt;/span&gt;&lt;span style=&quot;color: #383a42;&quot;&gt;-&amp;gt;&lt;/span&gt;&lt;span style=&quot;color: #e45649;&quot;&gt;pin&lt;/span&gt;&lt;/div&gt;&lt;/div&gt;" style="text;whiteSpace=wrap;html=1;" parent="1" vertex="1">
          <mxGeometry x="1560" y="306.25" width="120" height="35" as="geometry" />
        </mxCell>
        <mxCell id="7QPMSQ-8bjf0m_F3JloD-38" value="&lt;font color=&quot;#999999&quot; style=&quot;font-size: 11px;&quot;&gt;GEM object 的.pin回调&lt;/font&gt;&lt;div&gt;&lt;font color=&quot;#999999&quot;&gt;&lt;span style=&quot;font-size: 11px;&quot;&gt;gem_dma_helper中没有实现该回调&lt;/span&gt;&lt;/font&gt;&lt;/div&gt;" style="text;html=1;align=center;verticalAlign=middle;resizable=0;points=[];autosize=1;strokeColor=none;fillColor=none;" parent="1" vertex="1">
          <mxGeometry x="1515" y="266.25" width="200" height="40" as="geometry" />
        </mxCell>
        <mxCell id="7QPMSQ-8bjf0m_F3JloD-46" value="" style="edgeStyle=orthogonalEdgeStyle;rounded=0;orthogonalLoop=1;jettySize=auto;html=1;" parent="1" source="7QPMSQ-8bjf0m_F3JloD-39" target="7QPMSQ-8bjf0m_F3JloD-45" edge="1">
          <mxGeometry relative="1" as="geometry" />
        </mxCell>
        <mxCell id="7QPMSQ-8bjf0m_F3JloD-39" value="&lt;div style=&quot;background-color: rgb(245, 245, 245); font-family: Consolas, &amp;quot;Courier New&amp;quot;, monospace; font-weight: normal; font-size: 14px; line-height: 19px; white-space: pre;&quot;&gt;&lt;div style=&quot;&quot;&gt;&lt;font color=&quot;#ff0000&quot;&gt;dma_buf_map_attachment_unlocked&lt;/font&gt;&lt;/div&gt;&lt;/div&gt;" style="text;whiteSpace=wrap;html=1;" parent="1" vertex="1">
          <mxGeometry x="1075" y="350" width="250" height="30" as="geometry" />
        </mxCell>
        <mxCell id="7QPMSQ-8bjf0m_F3JloD-40" value="&lt;font color=&quot;#ff0000&quot;&gt;红色: dma-buf 相关api&lt;/font&gt;&lt;div&gt;&lt;font color=&quot;#4078f2&quot;&gt;蓝色: drm prime相关api&lt;/font&gt;&lt;/div&gt;" style="text;html=1;align=center;verticalAlign=middle;resizable=0;points=[];autosize=1;strokeColor=none;fillColor=none;" parent="1" vertex="1">
          <mxGeometry x="5" y="-350" width="150" height="40" as="geometry" />
        </mxCell>
        <mxCell id="7QPMSQ-8bjf0m_F3JloD-67" value="" style="edgeStyle=orthogonalEdgeStyle;rounded=0;orthogonalLoop=1;jettySize=auto;html=1;" parent="1" source="7QPMSQ-8bjf0m_F3JloD-42" target="7QPMSQ-8bjf0m_F3JloD-66" edge="1">
          <mxGeometry relative="1" as="geometry" />
        </mxCell>
        <mxCell id="7QPMSQ-8bjf0m_F3JloD-42" value="&lt;div style=&quot;background-color: rgb(245, 245, 245); font-family: Consolas, &amp;quot;Courier New&amp;quot;, monospace; font-weight: normal; font-size: 14px; line-height: 19px; white-space: pre;&quot;&gt;&lt;div style=&quot;color: rgb(56, 58, 66);&quot;&gt;&lt;span style=&quot;color: #00afaf;&quot;&gt;dev&lt;/span&gt;&lt;span style=&quot;color: #383a42;&quot;&gt;-&amp;gt;&lt;/span&gt;&lt;span style=&quot;color: #e45649;&quot;&gt;driver&lt;/span&gt;&lt;span style=&quot;color: #383a42;&quot;&gt;-&amp;gt;&lt;/span&gt;&lt;span style=&quot;color: #e45649;&quot;&gt;gem_prime_import_sg_table&lt;/span&gt;&lt;/div&gt;&lt;div style=&quot;text-align: center;&quot;&gt;&lt;font color=&quot;#4078f2&quot;&gt;(drm_gem_dma_prime_import_sg_table)&lt;/font&gt;&lt;/div&gt;&lt;/div&gt;" style="text;whiteSpace=wrap;html=1;" parent="1" vertex="1">
          <mxGeometry x="1075" y="410" width="300" height="50" as="geometry" />
        </mxCell>
        <mxCell id="7QPMSQ-8bjf0m_F3JloD-48" value="" style="edgeStyle=orthogonalEdgeStyle;rounded=0;orthogonalLoop=1;jettySize=auto;html=1;" parent="1" source="7QPMSQ-8bjf0m_F3JloD-45" target="7QPMSQ-8bjf0m_F3JloD-47" edge="1">
          <mxGeometry relative="1" as="geometry" />
        </mxCell>
        <mxCell id="7QPMSQ-8bjf0m_F3JloD-45" value="&lt;div style=&quot;background-color: rgb(245, 245, 245); font-family: Consolas, &amp;quot;Courier New&amp;quot;, monospace; font-weight: normal; font-size: 14px; line-height: 19px; white-space: pre;&quot;&gt;&lt;div style=&quot;&quot;&gt;&lt;font color=&quot;#ff0000&quot;&gt;dma_buf_map_attachment&lt;/font&gt;&lt;/div&gt;&lt;/div&gt;" style="text;whiteSpace=wrap;html=1;" parent="1" vertex="1">
          <mxGeometry x="1345" y="350" width="180" height="30" as="geometry" />
        </mxCell>
        <mxCell id="7QPMSQ-8bjf0m_F3JloD-50" value="" style="edgeStyle=orthogonalEdgeStyle;rounded=0;orthogonalLoop=1;jettySize=auto;html=1;" parent="1" source="7QPMSQ-8bjf0m_F3JloD-47" target="7QPMSQ-8bjf0m_F3JloD-49" edge="1">
          <mxGeometry relative="1" as="geometry" />
        </mxCell>
        <mxCell id="7QPMSQ-8bjf0m_F3JloD-47" value="&lt;div style=&quot;color: #383a42;background-color: #f5f5f5;font-family: Consolas, &#39;Courier New&#39;, monospace;font-weight: normal;font-size: 14px;line-height: 19px;white-space: pre;&quot;&gt;&lt;div&gt;&lt;span style=&quot;color: #4078f2;&quot;&gt;__map_dma_buf&lt;/span&gt;&lt;/div&gt;&lt;/div&gt;" style="text;whiteSpace=wrap;html=1;" parent="1" vertex="1">
          <mxGeometry x="1560" y="350" width="115" height="30" as="geometry" />
        </mxCell>
        <mxCell id="7QPMSQ-8bjf0m_F3JloD-70" style="edgeStyle=orthogonalEdgeStyle;rounded=0;orthogonalLoop=1;jettySize=auto;html=1;exitX=1;exitY=0.5;exitDx=0;exitDy=0;" parent="1" source="7QPMSQ-8bjf0m_F3JloD-49" target="7QPMSQ-8bjf0m_F3JloD-55" edge="1">
          <mxGeometry relative="1" as="geometry">
            <Array as="points">
              <mxPoint x="2035" y="365" />
              <mxPoint x="2035" y="327" />
            </Array>
          </mxGeometry>
        </mxCell>
        <mxCell id="7QPMSQ-8bjf0m_F3JloD-71" style="edgeStyle=orthogonalEdgeStyle;rounded=0;orthogonalLoop=1;jettySize=auto;html=1;exitX=1;exitY=0.5;exitDx=0;exitDy=0;entryX=0;entryY=0.5;entryDx=0;entryDy=0;" parent="1" source="7QPMSQ-8bjf0m_F3JloD-49" target="7QPMSQ-8bjf0m_F3JloD-56" edge="1">
          <mxGeometry relative="1" as="geometry">
            <Array as="points">
              <mxPoint x="2035" y="365" />
              <mxPoint x="2035" y="406" />
            </Array>
          </mxGeometry>
        </mxCell>
        <mxCell id="7QPMSQ-8bjf0m_F3JloD-49" value="&lt;div style=&quot;background-color: rgb(245, 245, 245); font-family: Consolas, &amp;quot;Courier New&amp;quot;, monospace; font-weight: normal; font-size: 14px; line-height: 19px; white-space: pre;&quot;&gt;&lt;div style=&quot;color: rgb(56, 58, 66);&quot;&gt;&lt;span style=&quot;color: #00afaf;&quot;&gt;attach&lt;/span&gt;&lt;span style=&quot;color: #383a42;&quot;&gt;-&amp;gt;&lt;/span&gt;&lt;span style=&quot;color: #e45649;&quot;&gt;dmabuf&lt;/span&gt;&lt;span style=&quot;color: #383a42;&quot;&gt;-&amp;gt;&lt;/span&gt;&lt;span style=&quot;color: #e45649;&quot;&gt;ops&lt;/span&gt;&lt;span style=&quot;color: #383a42;&quot;&gt;-&amp;gt;&lt;/span&gt;&lt;span style=&quot;color: #e45649;&quot;&gt;map_dma_buf&lt;/span&gt;&lt;/div&gt;&lt;div style=&quot;text-align: center;&quot;&gt;&lt;font color=&quot;#4078f2&quot;&gt;(drm_gem_map_dma_buf)&lt;/font&gt;&lt;/div&gt;&lt;/div&gt;" style="text;whiteSpace=wrap;html=1;" parent="1" vertex="1">
          <mxGeometry x="1705" y="338.75" width="250" height="52.5" as="geometry" />
        </mxCell>
        <mxCell id="7QPMSQ-8bjf0m_F3JloD-52" value="&lt;div style=&quot;background-color: rgb(245, 245, 245); font-family: Consolas, &amp;quot;Courier New&amp;quot;, monospace; font-weight: normal; font-size: 14px; line-height: 19px; white-space: pre;&quot;&gt;&lt;div style=&quot;&quot;&gt;&lt;font color=&quot;#00cc00&quot;&gt;fill struct dma_buf_attachment&lt;/font&gt;&lt;/div&gt;&lt;div style=&quot;&quot;&gt;&lt;font color=&quot;#00cc00&quot;&gt;attach-&amp;gt;dev = dev&lt;/font&gt;&lt;/div&gt;&lt;div style=&quot;&quot;&gt;&lt;div style=&quot;line-height: 19px;&quot;&gt;&lt;font color=&quot;#00cc00&quot;&gt;attach-&amp;gt;dmabuf = dmabuf&lt;/font&gt;&lt;/div&gt;&lt;div style=&quot;line-height: 19px;&quot;&gt;&lt;span style=&quot;color: rgb(0, 204, 0);&quot;&gt;// only dynamic map will assign&lt;/span&gt;&lt;/div&gt;&lt;div style=&quot;line-height: 19px;&quot;&gt;&lt;div style=&quot;line-height: 19px;&quot;&gt;&lt;font color=&quot;#00cc00&quot;&gt;attach-&amp;gt;importer_ops = NULL&lt;/font&gt;&lt;/div&gt;&lt;div style=&quot;line-height: 19px;&quot;&gt;&lt;div style=&quot;line-height: 19px;&quot;&gt;&lt;font color=&quot;#00cc00&quot;&gt;attach-&amp;gt;importer_priv = NULL&lt;/font&gt;&lt;/div&gt;&lt;/div&gt;&lt;/div&gt;&lt;div style=&quot;line-height: 19px;&quot;&gt;&lt;div style=&quot;line-height: 19px;&quot;&gt;&lt;font color=&quot;#00cc00&quot;&gt;attach-&amp;gt;sgt = NULL &lt;/font&gt;&lt;/div&gt;&lt;/div&gt;&lt;/div&gt;&lt;/div&gt;" style="text;whiteSpace=wrap;html=1;" parent="1" vertex="1">
          <mxGeometry x="1236" y="133.75" width="249" height="145" as="geometry" />
        </mxCell>
        <mxCell id="7QPMSQ-8bjf0m_F3JloD-60" value="" style="edgeStyle=orthogonalEdgeStyle;rounded=0;orthogonalLoop=1;jettySize=auto;html=1;" parent="1" source="7QPMSQ-8bjf0m_F3JloD-55" target="7QPMSQ-8bjf0m_F3JloD-59" edge="1">
          <mxGeometry relative="1" as="geometry" />
        </mxCell>
        <mxCell id="7QPMSQ-8bjf0m_F3JloD-55" value="&lt;div style=&quot;background-color: rgb(245, 245, 245); font-family: Consolas, &amp;quot;Courier New&amp;quot;, monospace; font-weight: normal; font-size: 14px; line-height: 19px; white-space: pre;&quot;&gt;&lt;div style=&quot;color: rgb(56, 58, 66);&quot;&gt;&lt;span style=&quot;color: #e45649;&quot;&gt;obj&lt;/span&gt;&lt;span style=&quot;color: #383a42;&quot;&gt;-&amp;gt;&lt;/span&gt;&lt;span style=&quot;color: #e45649;&quot;&gt;funcs&lt;/span&gt;&lt;span style=&quot;color: #383a42;&quot;&gt;-&amp;gt;&lt;/span&gt;&lt;span style=&quot;color: #e45649;&quot;&gt;get_sg_table&lt;/span&gt;&lt;/div&gt;&lt;div style=&quot;&quot;&gt;&lt;font color=&quot;#4078f2&quot;&gt;(drm_gem_dma_object_get_sg_table)&lt;/font&gt;&lt;/div&gt;&lt;/div&gt;" style="text;whiteSpace=wrap;html=1;" parent="1" vertex="1">
          <mxGeometry x="2105" y="303.75" width="260" height="46.25" as="geometry" />
        </mxCell>
        <mxCell id="7QPMSQ-8bjf0m_F3JloD-56" value="&lt;div style=&quot;color: #383a42;background-color: #f5f5f5;font-family: Consolas, &#39;Courier New&#39;, monospace;font-weight: normal;font-size: 14px;line-height: 19px;white-space: pre;&quot;&gt;&lt;div&gt;&lt;span style=&quot;color: #4078f2;&quot;&gt;dma_map_sgtable&lt;/span&gt;&lt;/div&gt;&lt;/div&gt;" style="text;whiteSpace=wrap;html=1;" parent="1" vertex="1">
          <mxGeometry x="2095" y="391.25" width="130" height="30" as="geometry" />
        </mxCell>
        <mxCell id="7QPMSQ-8bjf0m_F3JloD-59" value="&lt;div style=&quot;background-color: rgb(245, 245, 245); font-family: Consolas, &amp;quot;Courier New&amp;quot;, monospace; font-weight: normal; font-size: 14px; line-height: 19px; white-space: pre;&quot;&gt;&lt;div style=&quot;&quot;&gt;&lt;font color=&quot;#4078f2&quot;&gt;dma_get_sgtable&lt;/font&gt;&lt;/div&gt;&lt;/div&gt;" style="text;whiteSpace=wrap;html=1;" parent="1" vertex="1">
          <mxGeometry x="2400" y="311.25" width="120" height="30" as="geometry" />
        </mxCell>
        <mxCell id="7QPMSQ-8bjf0m_F3JloD-61" value="&lt;font color=&quot;#999999&quot;&gt;&lt;span style=&quot;font-size: 11px;&quot;&gt;获取sg_table&lt;/span&gt;&lt;/font&gt;" style="text;html=1;align=center;verticalAlign=middle;resizable=0;points=[];autosize=1;strokeColor=none;fillColor=none;" parent="1" vertex="1">
          <mxGeometry x="2035" y="278.75" width="90" height="30" as="geometry" />
        </mxCell>
        <mxCell id="7QPMSQ-8bjf0m_F3JloD-63" value="&lt;font color=&quot;#999999&quot;&gt;&lt;span style=&quot;font-size: 11px;&quot;&gt;同步cache&lt;/span&gt;&lt;/font&gt;" style="text;html=1;align=center;verticalAlign=middle;resizable=0;points=[];autosize=1;strokeColor=none;fillColor=none;" parent="1" vertex="1">
          <mxGeometry x="2045" y="370" width="70" height="30" as="geometry" />
        </mxCell>
        <mxCell id="7QPMSQ-8bjf0m_F3JloD-64" value="&lt;h1&gt;Import dma-buf&lt;/h1&gt;" style="text;html=1;align=center;verticalAlign=middle;resizable=0;points=[];autosize=1;strokeColor=none;fillColor=none;" parent="1" vertex="1">
          <mxGeometry x="5" y="227.5" width="200" height="70" as="geometry" />
        </mxCell>
        <mxCell id="7QPMSQ-8bjf0m_F3JloD-65" value="&lt;h1&gt;Export dma-buf&lt;/h1&gt;" style="text;html=1;align=center;verticalAlign=middle;resizable=0;points=[];autosize=1;strokeColor=none;fillColor=none;" parent="1" vertex="1">
          <mxGeometry x="5" y="-30" width="200" height="70" as="geometry" />
        </mxCell>
        <mxCell id="7QPMSQ-8bjf0m_F3JloD-66" value="&lt;div style=&quot;color: #383a42;background-color: #f5f5f5;font-family: Consolas, &#39;Courier New&#39;, monospace;font-weight: normal;font-size: 14px;line-height: 19px;white-space: pre;&quot;&gt;&lt;div&gt;&lt;span style=&quot;color: #4078f2;&quot;&gt;__drm_gem_dma_create&lt;/span&gt;&lt;/div&gt;&lt;/div&gt;" style="text;whiteSpace=wrap;html=1;" parent="1" vertex="1">
          <mxGeometry x="1415" y="420" width="170" height="30" as="geometry" />
        </mxCell>
        <mxCell id="7QPMSQ-8bjf0m_F3JloD-68" value="&lt;font color=&quot;#999999&quot;&gt;&lt;span style=&quot;font-size: 11px;&quot;&gt;根据import进来的sg_table创建GEM object&lt;/span&gt;&lt;/font&gt;" style="text;html=1;align=center;verticalAlign=middle;resizable=0;points=[];autosize=1;strokeColor=none;fillColor=none;" parent="1" vertex="1">
          <mxGeometry x="1400" y="391.25" width="230" height="30" as="geometry" />
        </mxCell>
        <mxCell id="7QPMSQ-8bjf0m_F3JloD-69" value="&lt;font color=&quot;#999999&quot;&gt;&lt;span style=&quot;font-size: 11px;&quot;&gt;这里应该是跳转到import进来的dma-buf的map_dma_buf回调&lt;/span&gt;&lt;/font&gt;&lt;div&gt;&lt;font color=&quot;#999999&quot;&gt;&lt;span style=&quot;font-size: 11px;&quot;&gt;这里以import进来的是drm prime dma-buf 为例&lt;/span&gt;&lt;/font&gt;&lt;/div&gt;" style="text;html=1;align=center;verticalAlign=middle;resizable=0;points=[];autosize=1;strokeColor=none;fillColor=none;" parent="1" vertex="1">
          <mxGeometry x="1695" y="303.75" width="320" height="40" as="geometry" />
        </mxCell>
        <mxCell id="vuLgAwZv7nSGGhIB2zGk-2" style="edgeStyle=orthogonalEdgeStyle;rounded=0;orthogonalLoop=1;jettySize=auto;html=1;exitX=0.5;exitY=1;exitDx=0;exitDy=0;" parent="1" source="7QPMSQ-8bjf0m_F3JloD-25" target="7QPMSQ-8bjf0m_F3JloD-25" edge="1">
          <mxGeometry relative="1" as="geometry" />
        </mxCell>
        <mxCell id="vuLgAwZv7nSGGhIB2zGk-3" value="&lt;font color=&quot;#999999&quot;&gt;&lt;span style=&quot;font-size: 11px;&quot;&gt;import回调, 没实现默认为drm_gem_prime_import&lt;/span&gt;&lt;/font&gt;" style="text;html=1;align=center;verticalAlign=middle;resizable=0;points=[];autosize=1;strokeColor=none;fillColor=none;" parent="1" vertex="1">
          <mxGeometry x="495" y="273.75" width="260" height="30" as="geometry" />
        </mxCell>
        <mxCell id="vuLgAwZv7nSGGhIB2zGk-4" value="&lt;font color=&quot;#999999&quot;&gt;&lt;span style=&quot;font-size: 11px;&quot;&gt;export回调, 没实现默认为drm_gem_prime_export&lt;/span&gt;&lt;/font&gt;" style="text;html=1;align=center;verticalAlign=middle;resizable=0;points=[];autosize=1;strokeColor=none;fillColor=none;" parent="1" vertex="1">
          <mxGeometry x="720" y="-50" width="260" height="30" as="geometry" />
        </mxCell>
        <mxCell id="vuLgAwZv7nSGGhIB2zGk-5" value="&lt;div style=&quot;color: #383a42;background-color: #f5f5f5;font-family: Consolas, &#39;Courier New&#39;, monospace;font-weight: normal;font-size: 14px;line-height: 19px;white-space: pre;&quot;&gt;&lt;div&gt;&lt;span style=&quot;color: #4078f2;&quot;&gt;drm_prime_add_buf_handle&lt;/span&gt;&lt;/div&gt;&lt;/div&gt;" style="text;whiteSpace=wrap;html=1;" parent="1" vertex="1">
          <mxGeometry x="510" y="85" width="190" height="35" as="geometry" />
        </mxCell>
        <mxCell id="vuLgAwZv7nSGGhIB2zGk-7" value="&lt;font color=&quot;#999999&quot;&gt;&lt;span style=&quot;font-size: 11px;&quot;&gt;把gem object handle插入rb tree?&lt;/span&gt;&lt;/font&gt;" style="text;html=1;align=center;verticalAlign=middle;resizable=0;points=[];autosize=1;strokeColor=none;fillColor=none;" parent="1" vertex="1">
          <mxGeometry x="510" y="63.75" width="180" height="30" as="geometry" />
        </mxCell>
        <mxCell id="vuLgAwZv7nSGGhIB2zGk-8" value="&lt;div style=&quot;background-color: rgb(245, 245, 245); font-family: Consolas, &amp;quot;Courier New&amp;quot;, monospace; font-weight: normal; font-size: 14px; line-height: 19px; white-space: pre;&quot;&gt;&lt;div style=&quot;&quot;&gt;&lt;font color=&quot;#ff0000&quot;&gt;dma_buf_fd&lt;/font&gt;&lt;/div&gt;&lt;/div&gt;" style="text;whiteSpace=wrap;html=1;" parent="1" vertex="1">
          <mxGeometry x="510" y="140" width="80" height="30" as="geometry" />
        </mxCell>
        <mxCell id="vuLgAwZv7nSGGhIB2zGk-10" value="&lt;font color=&quot;#999999&quot;&gt;&lt;span style=&quot;font-size: 11px;&quot;&gt;生成fd并返回&lt;/span&gt;&lt;/font&gt;" style="text;html=1;align=center;verticalAlign=middle;resizable=0;points=[];autosize=1;strokeColor=none;fillColor=none;" parent="1" vertex="1">
          <mxGeometry x="500" y="120" width="90" height="30" as="geometry" />
        </mxCell>
        <mxCell id="vuLgAwZv7nSGGhIB2zGk-11" value="&lt;font color=&quot;#999999&quot;&gt;&lt;span style=&quot;font-size: 11px;&quot;&gt;填充struct dma-buf&lt;/span&gt;&lt;/font&gt;" style="text;html=1;align=center;verticalAlign=middle;resizable=0;points=[];autosize=1;strokeColor=none;fillColor=none;" parent="1" vertex="1">
          <mxGeometry x="1160" y="-40" width="120" height="30" as="geometry" />
        </mxCell>
        <mxCell id="vuLgAwZv7nSGGhIB2zGk-20" value="" style="edgeStyle=orthogonalEdgeStyle;rounded=0;orthogonalLoop=1;jettySize=auto;html=1;" parent="1" source="vuLgAwZv7nSGGhIB2zGk-17" target="vuLgAwZv7nSGGhIB2zGk-19" edge="1">
          <mxGeometry relative="1" as="geometry" />
        </mxCell>
        <mxCell id="vuLgAwZv7nSGGhIB2zGk-17" value="&lt;div style=&quot;color: #383a42;background-color: #f5f5f5;font-family: Consolas, &#39;Courier New&#39;, monospace;font-weight: normal;font-size: 14px;line-height: 19px;white-space: pre;&quot;&gt;&lt;div&gt;&lt;span style=&quot;color: #aca600;&quot;&gt;DRM_IOCTL_MODE_MAP_DUMB&lt;/span&gt;&lt;/div&gt;&lt;/div&gt;" style="text;whiteSpace=wrap;html=1;" parent="1" vertex="1">
          <mxGeometry x="25" y="370" width="190" height="30" as="geometry" />
        </mxCell>
        <mxCell id="CaTmLKB_xjKaRtqYqLn0-2" value="" style="edgeStyle=orthogonalEdgeStyle;rounded=0;orthogonalLoop=1;jettySize=auto;html=1;" edge="1" parent="1" source="vuLgAwZv7nSGGhIB2zGk-19">
          <mxGeometry relative="1" as="geometry">
            <mxPoint x="180" y="442.5" as="targetPoint" />
          </mxGeometry>
        </mxCell>
        <mxCell id="vuLgAwZv7nSGGhIB2zGk-19" value="&lt;div style=&quot;color: #383a42;background-color: #f5f5f5;font-family: Consolas, &#39;Courier New&#39;, monospace;font-weight: normal;font-size: 14px;line-height: 19px;white-space: pre;&quot;&gt;&lt;div&gt;&lt;span style=&quot;color: #4078f2;&quot;&gt;mmap&lt;/span&gt;&lt;/div&gt;&lt;/div&gt;" style="text;whiteSpace=wrap;html=1;" parent="1" vertex="1">
          <mxGeometry x="100" y="425" width="40" height="35" as="geometry" />
        </mxCell>
        <mxCell id="vuLgAwZv7nSGGhIB2zGk-21" value="拿到gem object handle后, 就可以map dumb" style="text;html=1;align=center;verticalAlign=middle;resizable=0;points=[];autosize=1;strokeColor=none;fillColor=none;fontSize=11;fontColor=#999999;" parent="1" vertex="1">
          <mxGeometry x="120" y="350" width="240" height="30" as="geometry" />
        </mxCell>
        <mxCell id="vuLgAwZv7nSGGhIB2zGk-22" value="最后对dma-buf fd进行mmap, 就可以对dma-buf内存访问了" style="text;html=1;align=center;verticalAlign=middle;resizable=0;points=[];autosize=1;strokeColor=none;fillColor=none;fontSize=11;fontColor=#999999;" parent="1" vertex="1">
          <mxGeometry x="120" y="400" width="310" height="30" as="geometry" />
        </mxCell>
        <mxCell id="CaTmLKB_xjKaRtqYqLn0-5" value="&lt;div style=&quot;color: #383a42;background-color: #f5f5f5;font-family: Consolas, &#39;Courier New&#39;, monospace;font-weight: normal;font-size: 14px;line-height: 19px;white-space: pre;&quot;&gt;&lt;div&gt;&lt;span style=&quot;color: #4078f2;&quot;&gt;.mmap from imported dma-buf&lt;/span&gt;&lt;/div&gt;&lt;/div&gt;" style="text;whiteSpace=wrap;html=1;" vertex="1" parent="1">
          <mxGeometry x="180" y="427.5" width="210" height="30" as="geometry" />
        </mxCell>
      </root>
    </mxGraphModel>
  </diagram>
</mxfile>
